<?xml version="1.0" encoding="UTF-8"?>
<!DOCTYPE svg PUBLIC "-//W3C//DTD SVG 1.1//EN" "http://www.w3.org/Graphics/SVG/1.1/DTD/svg11.dtd">
<!-- Creator: CorelDRAW -->
<svg xmlns="http://www.w3.org/2000/svg" xml:space="preserve" width="32mm" height="32mm" version="1.1" style="shape-rendering:geometricPrecision; text-rendering:geometricPrecision; image-rendering:optimizeQuality; fill-rule:evenodd; clip-rule:evenodd"
viewBox="0 0 1322.64 1322.64"
 xmlns:xlink="http://www.w3.org/1999/xlink"
 xmlns:xodm="http://www.corel.com/coreldraw/odm/2003">
 <defs>
  <style type="text/css">
   <![CDATA[
    .fil0 {fill:none}
    .fil3 {fill:#858789}
    .fil2 {fill:#A9D046}
    .fil1 {fill:#00A85A}
   ]]>
  </style>
 </defs>
 <g id="Layer_x0020_1">
  <metadata id="CorelCorpID_0Corel-Layer"/>
  <rect class="fil0" width="1322.64" height="1322.64"/>
  <g id="_45495332128">
   <g>
    <path class="fil1" d="M240.44 1217.82l870.88 -502.8c64.25,-37.09 86.54,-120.3 49.45,-184.55 -37.09,-64.25 -120.3,-86.54 -184.55,-49.45l-870.88 502.8c-64.25,37.09 -86.54,120.3 -49.45,184.55 37.09,64.25 120.3,86.54 184.55,49.45z"/>
   </g>
   <g>
    <path class="fil2" d="M243 555.98c-64.25,37.1 -86.54,120.3 -49.45,184.55 37.09,64.25 120.3,86.54 184.55,49.45l839.2 -484.52c64.25,-37.09 86.54,-120.3 49.45,-184.55 -37.09,-64.25 -120.3,-86.54 -184.55,-49.45l-839.2 484.52z"/>
   </g>
   <g>
    <path class="fil3" d="M768.09 1261.55l331.72 -191.52c64.25,-37.09 86.54,-120.3 49.45,-184.54 -37.1,-64.25 -120.3,-86.55 -184.55,-49.45l-331.72 191.52c-64.25,37.1 -86.54,120.3 -49.45,184.55 37.09,64.25 120.3,86.54 184.55,49.45z"/>
   </g>
   <g>
    <path class="fil3" d="M195.83 234.84c-64.25,37.1 -86.54,120.3 -49.45,184.55 37.09,64.25 120.3,86.54 184.55,49.45l300.96 -173.76c64.25,-37.09 86.54,-120.3 49.45,-184.55 -37.09,-64.25 -120.3,-86.54 -184.55,-49.45l-300.96 173.76z"/>
   </g>
  </g>
 </g>
</svg>
